<svg xmlns="http://www.w3.org/2000/svg" viewBox="0 0 706.3 149.13"><defs><style>.cls-1{fill:#423f40;}.cls-2{fill:#413f40;}</style></defs><g id="레이어_2" data-name="레이어 2"><g id="레이어_1-2" data-name="레이어 1"><path class="cls-1" d="M44.64,35.43,15.12,149.13H0L41.44.19H56.91l44.65,148.94H85L48.37,20.23Z"/><path class="cls-1" d="M150.34.58,164.93.39l51.93,112.72V.39h13.52V149.13H219L164.21,30.6V149.13H150.34Z"/><path class="cls-1" d="M563.07,149.13,562.72,0h14.22V149.13Z"/><polygon class="cls-1" points="625.73 149.13 625.73 74.86 625.73 0.58 664.77 0.58 703.81 0.58 703.72 6.58 703.63 12.57 671.62 12.57 639.6 12.57 639.6 39.41 639.6 66.25 669.13 66.25 698.65 66.25 698.65 72.68 698.65 79.11 669.13 79.11 639.6 79.11 639.6 107.83 639.6 136.56 672.68 136.56 705.77 136.56 706.03 142.84 706.3 149.13 666.02 149.13 625.73 149.13"/><path class="cls-2" d="M357.07,42.86a156.69,156.69,0,0,1,2.85,31.22V61.2A60.36,60.36,0,0,0,357.07,42.86Z"/><path class="cls-2" d="M355.49,111.87a60,60,0,0,0,4.43-22.68V74.08a161.7,161.7,0,0,1-2.49,30A73.86,73.86,0,0,1,355.49,111.87Z"/><path class="cls-2" d="M357.07,42.86A60.3,60.3,0,0,0,301.48,1c-.61,0-1.22,0-1.84,0h-6c-.62,0-1.23,0-1.84,0H279.17V149.13H306a60.32,60.32,0,0,0,49.46-37.26,73.86,73.86,0,0,0,1.94-7.82,161.7,161.7,0,0,0,2.49-30A156.69,156.69,0,0,0,357.07,42.86ZM346.92,89.19a47.36,47.36,0,0,1-47.28,47.28h-6c-.67,0-1.34,0-2-.05V14c.66,0,1.33-.05,2-.05h6A47.32,47.32,0,0,1,346.92,61.2Z"/><path class="cls-1" d="M499.81,117.75A26.8,26.8,0,0,1,493,129.48,23.21,23.21,0,0,0,499.81,117.75Z"/><path class="cls-1" d="M469.36,135.58q-4-.86-7-1.56A23.05,23.05,0,0,0,469.36,135.58Z"/><path class="cls-2" d="M470.87,135.63c-.51,0-1,0-1.51,0,1.64.35,3.4.71,5.32,1.1A76,76,0,0,0,485,135a26.68,26.68,0,0,0,7.92-5.5,23.06,23.06,0,0,1-15.71,6.15Z"/><path class="cls-2" d="M434.18,112.45A36.51,36.51,0,0,0,438,128.64a42.67,42.67,0,0,1-3.77-18.08Z"/><path class="cls-2" d="M477.24,149.13c.57,0,1.14,0,1.7,0-1.46,0-2.92,0-4.37,0Z"/><path class="cls-2" d="M513.93,81.48c0-.09,0-.19,0-.28v21.63c0,2.54,0,4.94-.22,7.23v.5a39.52,39.52,0,0,1-4.17,17.62c-.47,1.38-1,2.77-1.48,4.17a36.41,36.41,0,0,0,5.88-19.9Z"/><path class="cls-2" d="M473.94,149.13h0Z"/><path class="cls-2" d="M467.5,149c1.11.1,2.23.16,3.37.16h3.07c-.5,0-1,0-1.49-.07C470.74,149,469.1,149,467.5,149Z"/><path class="cls-2" d="M513.7,69V0H500.81V110.53a26.9,26.9,0,0,1-1,7.22A23.21,23.21,0,0,1,493,129.48,26.68,26.68,0,0,1,485,135a76,76,0,0,1-10.35,1.7c-1.92-.39-3.68-.75-5.32-1.1a23.05,23.05,0,0,1-7-1.56l-2.48-.61a26.83,26.83,0,0,1-12.84-22.88V90.06H434.18v20.5A42.67,42.67,0,0,0,438,128.64,36.69,36.69,0,0,0,467.5,149c1.6,0,3.24,0,4.95.09.5,0,1,.07,1.49.07h.63c1.45,0,2.91,0,4.37,0a36.65,36.65,0,0,0,29.11-16.74c.52-1.4,1-2.79,1.48-4.17a39.52,39.52,0,0,0,4.17-17.62v-.5c.17-2.29.26-4.69.22-7.23V69Z"/></g></g></svg>